<svg width="24" height="21" viewBox="0 0 24 21" fill="none" xmlns="http://www.w3.org/2000/svg">
<path d="M5 19.5C4.07174 19.5 3.1815 19.1313 2.52513 18.4749C1.86875 17.8185 1.5 16.9283 1.5 16C1.5 15.0718 1.86875 14.1815 2.52513 13.5251C3.1815 12.8688 4.07174 12.5 5 12.5C5.92826 12.5 6.8185 12.8688 7.47487 13.5251C8.13125 14.1815 8.5 15.0718 8.5 16C8.5 16.9283 8.13125 17.8185 7.47487 18.4749C6.8185 19.1313 5.92826 19.5 5 19.5ZM5 11C3.67392 11 2.40215 11.5268 1.46447 12.4645C0.526784 13.4022 0 14.6739 0 16C0 17.3261 0.526784 18.5979 1.46447 19.5355C2.40215 20.4732 3.67392 21 5 21C6.32608 21 7.59785 20.4732 8.53553 19.5355C9.47322 18.5979 10 17.3261 10 16C10 14.6739 9.47322 13.4022 8.53553 12.4645C7.59785 11.5268 6.32608 11 5 11ZM14.8 9.00001H19V7.20001H15.8L13.86 3.93001C13.57 3.43001 13 3.10001 12.4 3.10001C11.93 3.10001 11.5 3.29001 11.2 3.60001L7.5 7.29001C7.19 7.60001 7 8.00001 7 8.50001C7 9.13001 7.33 9.66001 7.85 9.97001L11.2 12V17H13V10.5L10.75 8.85001L13.07 6.50001M19 19.5C18.0717 19.5 17.1815 19.1313 16.5251 18.4749C15.8687 17.8185 15.5 16.9283 15.5 16C15.5 15.0718 15.8687 14.1815 16.5251 13.5251C17.1815 12.8688 18.0717 12.5 19 12.5C19.9283 12.5 20.8185 12.8688 21.4749 13.5251C22.1313 14.1815 22.5 15.0718 22.5 16C22.5 16.9283 22.1313 17.8185 21.4749 18.4749C20.8185 19.1313 19.9283 19.5 19 19.5ZM19 11C17.6739 11 16.4021 11.5268 15.4645 12.4645C14.5268 13.4022 14 14.6739 14 16C14 17.3261 14.5268 18.5979 15.4645 19.5355C16.4021 20.4732 17.6739 21 19 21C19.6566 21 20.3068 20.8707 20.9134 20.6194C21.52 20.3681 22.0712 19.9998 22.5355 19.5355C22.9998 19.0713 23.3681 18.5201 23.6194 17.9134C23.8707 17.3068 24 16.6566 24 16C24 15.3434 23.8707 14.6932 23.6194 14.0866C23.3681 13.48 22.9998 12.9288 22.5355 12.4645C22.0712 12.0002 21.52 11.6319 20.9134 11.3806C20.3068 11.1293 19.6566 11 19 11ZM16 3.80001C17 3.80001 17.8 3.00001 17.8 2.00001C17.8 1.00001 17 0.200012 16 0.200012C15 0.200012 14.2 1.00001 14.2 2.00001C14.2 3.00001 15 3.80001 16 3.80001Z" fill="white"/>
</svg>
