<?xml version="1.0" encoding="UTF-8" standalone="no"?>
<svg
   viewBox="0 0 20 20"
   version="1.1"
   id="svg1"
   sodipodi:docname="cog_icon.svg"
   inkscape:version="1.3.2 (091e20ef0f, 2023-11-25)"
   xmlns:inkscape="http://www.inkscape.org/namespaces/inkscape"
   xmlns:sodipodi="http://sodipodi.sourceforge.net/DTD/sodipodi-0.dtd"
   xmlns="http://www.w3.org/2000/svg"
   xmlns:svg="http://www.w3.org/2000/svg">
  <defs
     id="defs1" />
  <sodipodi:namedview
     id="namedview1"
     pagecolor="#ffffff"
     bordercolor="#000000"
     borderopacity="0.25"
     inkscape:showpageshadow="2"
     inkscape:pageopacity="0.0"
     inkscape:pagecheckerboard="0"
     inkscape:deskcolor="#d1d1d1"
     inkscape:zoom="40.2"
     inkscape:cx="10"
     inkscape:cy="10"
     inkscape:window-width="1920"
     inkscape:window-height="1008"
     inkscape:window-x="1280"
     inkscape:window-y="42"
     inkscape:window-maximized="1"
     inkscape:current-layer="svg1" />
  <path
     d="M3.94 6.5L2.22 3.64l1.42-1.42L6.5 3.94c.52-.3 1.1-.54 1.7-.7L9 0h2l.8 3.24c.6.16 1.18.4 1.7.7l2.86-1.72 1.42 1.42-1.72 2.86c.3.52.54 1.1.7 1.7L20 9v2l-3.24.8c-.16.6-.4 1.18-.7 1.7l1.72 2.86-1.42 1.42-2.86-1.72c-.52.3-1.1.54-1.7.7L11 20H9l-.8-3.24c-.6-.16-1.18-.4-1.7-.7l-2.86 1.72-1.42-1.42 1.72-2.86c-.3-.52-.54-1.1-.7-1.7L0 11V9l3.24-.8c.16-.6.4-1.18.7-1.7zM10 13a3 3 0 1 0 0-6 3 3 0 0 0 0 6z"
     id="path1" />
  <path
     style="fill:#ffffff;stroke-width:0.0248756"
     d="m 9.004959,19.956754 c -0.00611,-0.01726 -0.1859575,-0.742202 -0.3996578,-1.610983 -0.2137,-0.868781 -0.3958975,-1.585966 -0.4048835,-1.593744 -0.00899,-0.0078 -0.1226814,-0.04514 -0.2526565,-0.08304 -0.3420124,-0.09971 -0.762455,-0.269996 -1.1248913,-0.455608 -0.1740386,-0.08913 -0.3312786,-0.156356 -0.3494224,-0.149394 -0.018143,0.007 -0.6571915,0.388884 -1.4201062,0.848713 -0.7629147,0.45983 -1.3949289,0.836054 -1.4044756,0.836054 -0.00955,0 -0.3306219,-0.313414 -0.7135,-0.696475 C 2.3384788,16.455108 2.2430666,16.349593 2.2661772,16.312231 2.4342284,16.040552 3.9270858,13.54981 3.9363697,13.525617 3.9432373,13.50772 3.8806918,13.361199 3.7973796,13.200015 3.6142363,12.845687 3.44574,12.432897 3.3343072,12.06556 3.288801,11.915548 3.2410361,11.7893 3.2281632,11.78501 3.2152903,11.780719 2.4892843,11.600594 1.6148168,11.384731 L 0.02487562,10.992255 V 10 9.007745 L 1.6169154,8.6147955 C 2.4925373,8.3986731 3.2207495,8.2173418 3.2351644,8.2118371 3.2495796,8.2063321 3.2743373,8.1456664 3.2901818,8.0770241 3.3478321,7.8272704 3.552209,7.3041348 3.747155,6.9073276 3.8568876,6.6839699 3.941542,6.4878622 3.9352759,6.4715328 3.9267465,6.4493052 2.422531,3.9405376 2.2661772,3.6877687 2.2430666,3.650407 2.3384788,3.5448915 2.9353657,2.9477189 c 0.3828781,-0.3830612 0.703953,-0.6964751 0.7135,-0.6964751 0.00955,0 0.6415609,0.3762244 1.4044756,0.836054 0.7629147,0.4598296 1.4007895,0.8413002 1.4174995,0.8477126 0.01671,0.00641 0.2131291,-0.078123 0.4364868,-0.1878554 0.3968072,-0.194946 0.9199428,-0.3993229 1.1696965,-0.4569732 0.068642,-0.015845 0.129308,-0.040602 0.134813,-0.055017 0.0055,-0.014415 0.186836,-0.7426271 0.4029584,-1.618249 L 9.007745,0.02487562 h 0.992307 0.992306 l 0.387855,1.56716418 c 0.21332,0.8619403 0.394172,1.5900473 0.401894,1.6180154 0.01018,0.036865 0.04865,0.058839 0.139857,0.079893 0.250703,0.057869 0.773283,0.2619564 1.170708,0.4572067 0.223358,0.1097326 0.419254,0.194435 0.435324,0.1882273 0.02334,-0.00901 2.577638,-1.5399236 2.775218,-1.6633146 0.04941,-0.03086 0.09466,0.00921 0.749067,0.663298 0.383061,0.3828781 0.696475,0.7034368 0.696475,0.7123527 0,0.00892 -0.376244,0.6409814 -0.836098,1.4045898 -0.459853,0.7636082 -0.841816,1.4032818 -0.848806,1.4214968 -0.007,0.018215 0.05546,0.164996 0.138768,0.3261803 0.18345,0.3549199 0.351811,0.7675585 0.463232,1.1353381 l 0.0829,0.2736318 1.613187,0.399363 1.613187,0.3993629 V 10 10.992319 l -1.613187,0.399363 -1.613187,0.399363 -0.0829,0.273632 c -0.111421,0.367779 -0.279782,0.780418 -0.463232,1.135338 -0.08331,0.161184 -0.145758,0.307965 -0.138768,0.32618 0.007,0.01821 0.388953,0.657889 0.848806,1.421497 0.459854,0.763608 0.836098,1.395674 0.836098,1.40459 0,0.0089 -0.313414,0.329474 -0.696475,0.712352 -0.654402,0.65409 -0.699652,0.694158 -0.749067,0.663298 -0.19758,-0.123391 -2.751881,-1.654299 -2.775218,-1.663314 -0.01607,-0.0062 -0.211966,0.07849 -0.435324,0.188227 -0.391172,0.192178 -0.88154,0.38361 -1.162407,0.453788 -0.09697,0.02423 -0.138281,0.04759 -0.148304,0.08387 -0.0076,0.02766 -0.188426,0.755514 -0.401743,1.617454 l -0.387849,1.567164 -0.988149,0.0065 c -0.777563,0.0051 -0.990517,-1.82e-4 -0.999261,-0.02488 z m 1.546838,-6.998864 c 1.064014,-0.188073 1.970118,-0.977194 2.306977,-2.009134 0.213057,-0.652683 0.193253,-1.4233 -0.05251,-2.0432834 -0.380509,-0.9599032 -1.196396,-1.6485353 -2.19681,-1.8541719 -0.361881,-0.074385 -0.8570254,-0.074385 -1.2189057,0 C 8.2133495,7.2932754 7.2932754,8.2133495 7.0513007,9.3905473 6.939697,9.9334943 6.9942799,10.59309 7.1917898,11.088261 c 0.54521,1.366882 1.9094958,2.126019 3.3600072,1.869629 z"
     id="path2" />
</svg>
