<?xml version="1.0" encoding="UTF-8" standalone="no"?>
<svg
   enable-background="new 0 0 48 48"
   height="48px"
   version="1.1"
   viewBox="0 0 48 48"
   width="48px"
   xml:space="preserve"
   id="svg5"
   sodipodi:docname="food.svg"
   inkscape:version="1.3.2 (091e20ef0f, 2023-11-25)"
   xmlns:inkscape="http://www.inkscape.org/namespaces/inkscape"
   xmlns:sodipodi="http://sodipodi.sourceforge.net/DTD/sodipodi-0.dtd"
   xmlns="http://www.w3.org/2000/svg"
   xmlns:svg="http://www.w3.org/2000/svg"><defs
     id="defs5" /><sodipodi:namedview
     id="namedview5"
     pagecolor="#ffffff"
     bordercolor="#000000"
     borderopacity="0.25"
     inkscape:showpageshadow="2"
     inkscape:pageopacity="0.0"
     inkscape:pagecheckerboard="0"
     inkscape:deskcolor="#d1d1d1"
     inkscape:zoom="16.75"
     inkscape:cx="24"
     inkscape:cy="24"
     inkscape:window-width="1920"
     inkscape:window-height="1008"
     inkscape:window-x="1280"
     inkscape:window-y="42"
     inkscape:window-maximized="1"
     inkscape:current-layer="svg5" /><g
     id="Expanded"><g
       id="g5"><g
         id="g1"><path
           d="M31,48c-0.553,0-1-0.447-1-1V1c0-0.553,0.447-1,1-1s1,0.447,1,1v46C32,47.553,31.553,48,31,48z"
           id="path1" /></g><g
         id="g2"><path
           d="M37,31h-6c-0.553,0-1-0.447-1-1s0.447-1,1-1h4.996c-0.133-16.802-3.585-26.66-5.014-27.002     c-0.552,0-0.991-0.446-0.991-0.999C29.991,0.447,30.447,0,31,0c4.188,0,7,15.512,7,30C38,30.553,37.553,31,37,31z"
           id="path2" /></g><g
         id="g3"><path
           d="M17,18c-3.859,0-7-3.141-7-7V1c0-0.553,0.447-1,1-1s1,0.447,1,1v10c0,2.757,2.243,5,5,5s5-2.243,5-5V1     c0-0.553,0.447-1,1-1s1,0.447,1,1v10C24,14.859,20.859,18,17,18z"
           id="path3" /></g><g
         id="g4"><path
           d="M17,48c-0.553,0-1-0.447-1-1V1c0-0.553,0.447-1,1-1s1,0.447,1,1v46C18,47.553,17.553,48,17,48z"
           id="path4" /></g></g></g><path
     style="fill:#ffffff;stroke-width:0.0597015"
     d="m 16.567164,47.839676 c -0.195295,-0.10045 -0.305337,-0.210924 -0.402985,-0.404565 L 16.029851,47.16873 V 32.538273 17.907816 l -0.462687,-0.09601 c -1.855902,-0.38512 -3.559625,-1.608092 -4.546525,-3.263599 -0.56262,-0.943787 -0.870972,-1.933216 -0.96159,-3.085518 -0.072344,-0.919928 -0.074012,-10.3112635 -0.0019,-10.62224557 0.154025,-0.66410834 0.792805,-0.97991402 1.375673,-0.68011707 0.195295,0.10044964 0.305337,0.21092351 0.402985,0.40456458 l 0.134328,0.26638151 4.51e-4,5.28585735 c 2.88e-4,3.3778579 0.02292,5.4259322 0.0627,5.6739172 0.158086,0.985539 0.629325,1.931989 1.328332,2.667861 0.658944,0.693696 1.660604,1.27685 2.444339,1.423064 l 0.223881,0.04177 V 8.3775033 0.83127045 l 0.134328,-0.26638151 c 0.09765,-0.19364107 0.20769,-0.30411494 0.402985,-0.40456458 0.582868,-0.29979695 1.221648,0.0160087 1.375674,0.68011707 0.03103,0.13378287 0.05492,3.41447447 0.05574,7.65209587 0.0012,6.1452777 0.0151,7.4179107 0.08112,7.4179107 0.04383,0 0.251155,-0.05629 0.460719,-0.125085 1.679958,-0.551502 2.935608,-1.901769 3.341015,-3.592773 0.112544,-0.469434 0.117819,-0.72549 0.11958,-5.8045303 0.001,-2.9720218 0.02578,-5.41662871 0.05616,-5.54761827 0.154026,-0.66410834 0.792806,-0.97991402 1.375674,-0.68011707 0.195295,0.10044964 0.305337,0.21092351 0.402985,0.40456458 l 0.134328,0.26638151 -3.52e-4,5.31570805 c -3.86e-4,5.8323895 -0.008,5.9823955 -0.355189,7.0187525 -0.758482,2.263918 -2.674385,4.035712 -4.959967,4.586892 l -0.654457,0.157825 -0.0015,14.507462 c -8.88e-4,8.494907 -0.02403,14.60452 -0.05583,14.741649 -0.154026,0.664108 -0.792806,0.979914 -1.375674,0.680117 z"
     id="path5" /><path
     style="fill:#ffffff;stroke-width:0.0597015"
     d="m 30.623906,47.886173 c -0.217215,-0.09461 -0.487062,-0.400234 -0.549297,-0.622117 -0.02462,-0.08777 -0.04476,-10.596892 -0.04476,-23.353608 V 0.71641791 l 0.131378,-0.21122926 c 0.44347,-0.713006 1.434208,-0.60115186 2.335516,0.26367923 2.732918,2.62231452 4.870138,12.44964812 5.383324,24.75352012 0.07926,1.90017 0.08257,4.653379 0.0058,4.838295 -0.08827,0.212697 -0.18958,0.324293 -0.424263,0.467358 -0.203624,0.12413 -0.262232,0.126741 -2.849691,0.12696 l -2.641791,2.23e-4 v 8.106753 8.106753 l -0.134328,0.266381 c -0.222429,0.441091 -0.768338,0.644273 -1.211915,0.451062 z M 36.029434,28.522388 C 36.028689,27.58844 35.913044,24.515297 35.818814,22.925373 35.459496,16.862672 34.624085,11.319184 33.426547,7.0511385 33.051742,5.7153272 32.502587,4.185234 32.158693,3.5185584 l -0.182801,-0.3543793 -0.0029,12.9402989 -0.0029,12.940298 H 34 36.029851 Z"
     id="path6" /></svg>
