<?xml version="1.0" encoding="UTF-8" standalone="no"?>
<svg
   style="enable-background:new 0 0 24 24;"
   version="1.1"
   viewBox="0 0 24 24"
   xml:space="preserve"
   id="svg2"
   sodipodi:docname="nav_signout.svg"
   inkscape:version="1.3.2 (091e20ef0f, 2023-11-25)"
   xmlns:inkscape="http://www.inkscape.org/namespaces/inkscape"
   xmlns:sodipodi="http://sodipodi.sourceforge.net/DTD/sodipodi-0.dtd"
   xmlns="http://www.w3.org/2000/svg"
   xmlns:svg="http://www.w3.org/2000/svg"><defs
     id="defs2" /><sodipodi:namedview
     id="namedview2"
     pagecolor="#ffffff"
     bordercolor="#000000"
     borderopacity="0.25"
     inkscape:showpageshadow="2"
     inkscape:pageopacity="0.0"
     inkscape:pagecheckerboard="0"
     inkscape:deskcolor="#d1d1d1"
     inkscape:zoom="33.5"
     inkscape:cx="12"
     inkscape:cy="12"
     inkscape:window-width="1920"
     inkscape:window-height="1008"
     inkscape:window-x="1280"
     inkscape:window-y="42"
     inkscape:window-maximized="1"
     inkscape:current-layer="svg2" /><style
     type="text/css"
     id="style1">
	.st0{opacity:0.2;fill:none;stroke:#000000;stroke-width:5.000000e-02;stroke-miterlimit:10;}
</style><g
     id="grid_system" /><g
     id="_icons"><g
       id="g2"><path
         d="M20.9,11.6c-0.1-0.1-0.1-0.2-0.2-0.3l-3-3c-0.4-0.4-1-0.4-1.4,0s-0.4,1,0,1.4l1.3,1.3H13c-0.6,0-1,0.4-1,1s0.4,1,1,1h4.6    l-1.3,1.3c-0.4,0.4-0.4,1,0,1.4c0.2,0.2,0.5,0.3,0.7,0.3s0.5-0.1,0.7-0.3l3-3c0.1-0.1,0.2-0.2,0.2-0.3C21,12.1,21,11.9,20.9,11.6z    "
         id="path1" /><path
         d="M15.5,18.1C14.4,18.7,13.2,19,12,19c-3.9,0-7-3.1-7-7s3.1-7,7-7c1.2,0,2.4,0.3,3.5,0.9c0.5,0.3,1.1,0.1,1.4-0.4    c0.3-0.5,0.1-1.1-0.4-1.4C15.1,3.4,13.6,3,12,3c-5,0-9,4-9,9s4,9,9,9c1.6,0,3.1-0.4,4.5-1.2c0.5-0.3,0.6-0.9,0.4-1.4    C16.6,18,16,17.8,15.5,18.1z"
         id="path2" /></g></g><path
     style="fill:#ffffff;stroke-width:0.0298507"
     d="M 11.701493,20.978255 C 10.036903,20.933517 8.3030922,20.369723 6.9253731,19.425176 4.472746,17.743684 3.0155413,14.976301 3.0155413,12 c 0,-4.2636051 2.9817321,-7.9379034 7.1337127,-8.7906578 0.649706,-0.1334398 1.128956,-0.1809285 1.835821,-0.1819107 1.451216,-0.00202 2.67019,0.2659816 4.119403,0.9056729 0.364982,0.1611056 0.440924,0.2072676 0.599627,0.3644879 0.216339,0.2143183 0.31082,0.427833 0.31082,0.7024077 0,0.2737121 -0.0945,0.4877846 -0.31082,0.7041048 C 16.468379,5.9398301 16.259586,6.0250275 15.955224,6.0096827 15.766656,6.0001758 15.704039,5.9783567 15.313433,5.7860483 14.179781,5.2279132 13.219057,5 12,5 11.149397,5 10.524773,5.0961532 9.7761194,5.3423391 8.7466531,5.6808669 7.8890749,6.1992254 7.1081937,6.9549528 5.9881096,8.038957 5.3003199,9.3933803 5.0540783,11 c -0.073257,0.477973 -0.073142,1.523334 2.199e-4,2 0.2358443,1.532378 0.8518489,2.800165 1.8804594,3.870138 1.1172639,1.162191 2.5301851,1.871822 4.1488614,2.083742 0.461593,0.06043 1.370945,0.06048 1.831583,9.5e-5 0.867915,-0.113774 1.576182,-0.333961 2.428082,-0.754845 0.380408,-0.187943 0.416363,-0.19966 0.641791,-0.209153 0.318092,-0.0134 0.524074,0.06207 0.747675,0.273933 0.137428,0.130212 0.169469,0.181483 0.207429,0.331914 0.08149,0.322932 0.03645,0.611399 -0.138485,0.88696 -0.113025,0.178038 -0.214678,0.254223 -0.629118,0.471492 -1.381151,0.724067 -2.877674,1.066805 -4.471083,1.023979 z"
     id="path3" /><path
     style="fill:#ffffff;stroke-width:0.0298507"
     d="M 16.754807,15.94356 C 16.467694,15.849741 16.25101,15.669697 16.112206,15.409618 16.055985,15.304275 16.044941,15.237023 16.044941,15 c 0,-0.239951 0.01082,-0.304249 0.07033,-0.41791 0.04338,-0.08287 0.346109,-0.411664 0.790154,-0.858209 L 17.625248,13 15.342475,12.999409 c -1.33354,-3.46e-4 -2.367107,-0.01278 -2.485583,-0.02992 -0.339287,-0.04906 -0.587095,-0.21468 -0.731943,-0.489194 C 12.05202,12.342087 12.044776,12.29869 12.044776,12 c 0,-0.29824 0.0073,-0.342048 0.07942,-0.477612 0.151047,-0.283847 0.386329,-0.4418 0.732692,-0.491881 0.118476,-0.01713 1.152043,-0.02957 2.485583,-0.02992 L 17.625248,11 16.905421,10.276119 C 16.461376,9.8295739 16.15865,9.5007746 16.115267,9.4179104 16.055786,9.3042968 16.044928,9.239851 16.044859,9 c -7.6e-5,-0.2586273 0.0077,-0.2976498 0.08846,-0.443445 0.102628,-0.1852851 0.286591,-0.3574448 0.487085,-0.4558335 0.203097,-0.099665 0.558897,-0.099375 0.767653,6.274e-4 0.116816,0.05596 0.49519,0.4160117 1.741019,1.6567164 0.87547,0.8718697 1.620993,1.6373507 1.656716,1.7010687 0.03572,0.06372 0.08495,0.151032 0.109402,0.19403 0.0297,0.05224 0.04451,0.162378 0.04462,0.331911 3.22e-4,0.473877 0.118688,0.324568 -1.710755,2.157969 -1.41788,1.420949 -1.656119,1.647503 -1.815462,1.726426 -0.217009,0.107483 -0.46965,0.135896 -0.658796,0.07409 z"
     id="path4" /></svg>
