<svg width="25" height="32" viewBox="0 0 25 32" fill="none" xmlns="http://www.w3.org/2000/svg">
<path d="M3.006 3.35472e-05C1.8828 3.35472e-05 0.891 0.854134 0.684 2.08263C0.4176 3.67773 0 6.51693 0 8.77503C0 11.1755 1.1448 13.2854 2.871 14.5002C3.3588 14.8454 3.6 15.29 3.6 15.6702V16.4697C3.6 16.5048 3.5982 16.5399 3.5946 16.575C3.546 17.082 3.3228 19.3616 3.1122 21.7055C2.9052 24.0162 2.7 26.483 2.7 27.3C2.7 28.3344 3.07928 29.3264 3.75442 30.0577C4.42955 30.7891 5.34522 31.2 6.3 31.2C7.25478 31.2 8.17045 30.7891 8.84558 30.0577C9.52072 29.3264 9.9 28.3344 9.9 27.3C9.9 26.481 9.6948 24.0162 9.4878 21.7055C9.33391 19.9952 9.17311 18.2857 9.0054 16.577L9 16.4697V15.6702C9 15.288 9.2412 14.8434 9.729 14.5002C10.6102 13.8809 11.3344 13.0327 11.8359 12.0327C12.3373 11.0328 12.6 9.91297 12.6 8.77503C12.6 6.51693 12.1824 3.67773 11.916 2.08263C11.8159 1.49557 11.5285 0.965307 11.104 0.584598C10.6796 0.203889 10.1451 -0.00303052 9.594 3.35472e-05C8.982 3.35472e-05 8.424 0.247683 8.0028 0.655233C7.52151 0.231443 6.92022 7.8056e-05 6.3 3.35472e-05C5.6538 3.35472e-05 5.0616 0.245733 4.5972 0.655233C4.16016 0.231881 3.59227 -0.00147791 3.006 3.35472e-05ZM5.4 2.92503C5.4 2.66645 5.49482 2.41845 5.6636 2.2356C5.83239 2.05276 6.06131 1.95003 6.3 1.95003C6.53869 1.95003 6.76761 2.05276 6.9364 2.2356C7.10518 2.41845 7.2 2.66645 7.2 2.92503V8.77503C7.2 9.03362 7.29482 9.28161 7.4636 9.46446C7.63239 9.64731 7.8613 9.75003 8.1 9.75003C8.33869 9.75003 8.56761 9.64731 8.7364 9.46446C8.90518 9.28161 9 9.03362 9 8.77503V2.59353C9 2.50903 9.01536 2.42535 9.04522 2.34728C9.07507 2.2692 9.11882 2.19826 9.17398 2.13851C9.22914 2.07876 9.29462 2.03136 9.36669 1.99902C9.43875 1.96668 9.51599 1.95003 9.594 1.95003C9.8766 1.95003 10.098 2.16063 10.1448 2.43168C10.4094 4.01703 10.8 6.70608 10.8 8.77503C10.8001 9.58825 10.6124 10.3886 10.254 11.1031C9.89558 11.8177 9.37787 12.4237 8.748 12.8661C7.9578 13.4219 7.2 14.3988 7.2 15.6702V16.4697C7.2 16.5737 7.2048 16.6777 7.2144 16.7817C7.2648 17.2848 7.4862 19.5585 7.6968 21.8946C7.9092 24.2639 8.1 26.6039 8.1 27.3C8.1 27.8172 7.91036 28.3132 7.57279 28.6789C7.23523 29.0446 6.77739 29.25 6.3 29.25C5.82261 29.25 5.36477 29.0446 5.02721 28.6789C4.68964 28.3132 4.5 27.8172 4.5 27.3C4.5 26.6039 4.6908 24.2639 4.9032 21.8946C5.1138 19.5585 5.3352 17.2848 5.3856 16.7817C5.3952 16.6777 5.4 16.5737 5.4 16.4697V15.6702C5.4 14.3988 4.6422 13.4219 3.852 12.8661C3.22213 12.4237 2.70442 11.8177 2.34602 11.1031C1.98762 10.3886 1.79991 9.58825 1.8 8.77503C1.8 6.70803 2.1906 4.01703 2.4552 2.43168C2.47985 2.29357 2.5489 2.16939 2.65007 2.08121C2.75124 1.99303 2.87799 1.94655 3.0078 1.95003C3.16503 1.95055 3.31565 2.01857 3.42666 2.1392C3.53767 2.25982 3.6 2.4232 3.6 2.59353V8.77503C3.6 9.03362 3.69482 9.28161 3.8636 9.46446C4.03239 9.64731 4.2613 9.75003 4.5 9.75003C4.73869 9.75003 4.96761 9.64731 5.1364 9.46446C5.30518 9.28161 5.4 9.03362 5.4 8.77503V2.92503ZM14.4 8.77503C14.4 6.44776 15.2534 4.2158 16.7724 2.57017C18.2915 0.92454 20.3517 3.35472e-05 22.5 3.35472e-05C22.7387 3.35472e-05 22.9676 0.102757 23.1364 0.285605C23.3052 0.468453 23.4 0.716447 23.4 0.975034V14.5821L23.436 15.0189C23.5763 16.771 23.7131 18.5234 23.8464 20.2761C24.0696 23.2148 24.3 26.4401 24.3 27.3C24.3 28.3344 23.9207 29.3264 23.2456 30.0577C22.5705 30.7891 21.6548 31.2 20.7 31.2C19.7452 31.2 18.8295 30.7891 18.1544 30.0577C17.4793 29.3264 17.1 28.3344 17.1 27.3C17.1 26.442 17.3304 23.2148 17.5536 20.2761C17.6652 18.7922 17.7786 17.357 17.8632 16.2942L17.9172 15.6H17.1C16.3839 15.6 15.6972 15.2919 15.1908 14.7433C14.6845 14.1948 14.4 13.4508 14.4 12.675V8.77503ZM19.7964 14.7108L19.7586 15.1886L19.656 16.4619C19.5714 17.5227 19.458 18.954 19.3464 20.436C19.1196 23.4332 18.9 26.5434 18.9 27.3C18.9 27.8172 19.0896 28.3132 19.4272 28.6789C19.7648 29.0446 20.2226 29.25 20.7 29.25C21.1774 29.25 21.6352 29.0446 21.9728 28.6789C22.3104 28.3132 22.5 27.8172 22.5 27.3C22.5 26.5434 22.2804 23.4332 22.0536 20.436C21.9201 18.6865 21.7827 16.9374 21.6414 15.1886L21.6036 14.7128V14.7108L21.6 14.625V2.01828C20.1003 2.25278 18.7289 3.06495 17.7371 4.30593C16.7453 5.54691 16.1996 7.13355 16.2 8.77503V12.675C16.2 12.9336 16.2948 13.1816 16.4636 13.3645C16.6324 13.5473 16.8613 13.65 17.1 13.65H18.9C19.0249 13.65 19.1483 13.6782 19.2626 13.7327C19.3769 13.7872 19.4794 13.8669 19.5637 13.9667C19.648 14.0664 19.7123 14.1841 19.7523 14.3122C19.7924 14.4404 19.8074 14.5761 19.7964 14.7108Z" fill="#F8F8F8"/>
</svg>
