<svg width="29" height="31" viewBox="0 0 29 31" fill="none" xmlns="http://www.w3.org/2000/svg">
<path d="M25.3354 16.9292C25.3938 16.4625 25.4375 15.9959 25.4375 15.5C25.4375 15.0042 25.3938 14.5375 25.3354 14.0709L28.4125 11.6646C28.6896 11.4459 28.7625 11.0521 28.5875 10.7313L25.6708 5.68544C25.5849 5.53498 25.4481 5.42006 25.2851 5.36126C25.1221 5.30247 24.9435 5.30366 24.7813 5.36461L21.15 6.82294C20.3917 6.23961 19.575 5.75836 18.6854 5.39378L18.1313 1.52919C18.1071 1.35761 18.0212 1.20072 17.8897 1.08795C17.7581 0.97519 17.5899 0.914296 17.4167 0.916694H11.5833C11.2188 0.916694 10.9125 1.17919 10.8688 1.52919L10.3146 5.39378C9.42501 5.75836 8.60834 6.25419 7.85001 6.82294L4.21876 5.36461C4.1342 5.33593 4.04555 5.32115 3.95626 5.32086C3.70834 5.32086 3.46043 5.45211 3.32918 5.68544L0.41251 10.7313C0.222927 11.0521 0.310427 11.4459 0.58751 11.6646L3.66459 14.0709C3.60626 14.5375 3.56251 15.0188 3.56251 15.5C3.56251 15.9813 3.60626 16.4625 3.66459 16.9292L0.58751 19.3354C0.310427 19.5542 0.23751 19.9479 0.41251 20.2688L3.32918 25.3146C3.41515 25.4651 3.55189 25.58 3.71491 25.6388C3.87792 25.6976 4.05654 25.6964 4.21876 25.6354L7.85001 24.1771C8.60834 24.7604 9.42501 25.2417 10.3146 25.6063L10.8688 29.4709C10.9125 29.8209 11.2188 30.0834 11.5833 30.0834H17.4167C17.7813 30.0834 18.0875 29.8209 18.1313 29.4709L18.6854 25.6063C19.575 25.2417 20.3917 24.7459 21.15 24.1771L24.7813 25.6354C24.8688 25.6646 24.9563 25.6792 25.0438 25.6792C25.2917 25.6792 25.5396 25.5479 25.6708 25.3146L28.5875 20.2688C28.7625 19.9479 28.6896 19.5542 28.4125 19.3354L25.3354 16.9292ZM22.4479 14.4354C22.5063 14.8875 22.5208 15.1938 22.5208 15.5C22.5208 15.8063 22.4917 16.1271 22.4479 16.5646L22.2438 18.2125L23.5417 19.2334L25.1167 20.4584L24.0958 22.2229L22.2438 21.4792L20.7271 20.8667L19.4146 21.8584C18.7875 22.325 18.1896 22.675 17.5917 22.9229L16.0458 23.55L15.8125 25.1979L15.5208 27.1667H13.4792L13.2021 25.1979L12.9688 23.55L11.4229 22.9229C10.7958 22.6604 10.2125 22.325 9.62918 21.8875L8.30209 20.8667L6.75626 21.4938L4.90418 22.2375L3.88334 20.4729L5.45834 19.2479L6.75626 18.2271L6.55209 16.5792C6.50834 16.1271 6.47918 15.7917 6.47918 15.5C6.47918 15.2084 6.50834 14.8729 6.55209 14.4354L6.75626 12.7875L5.45834 11.7667L3.88334 10.5417L4.90418 8.77711L6.75626 9.52086L8.27293 10.1334L9.58543 9.14169C10.2125 8.67503 10.8104 8.32503 11.4083 8.07711L12.9542 7.45003L13.1875 5.80211L13.4792 3.83336H15.5063L15.7833 5.80211L16.0167 7.45003L17.5625 8.07711C18.1896 8.33961 18.7729 8.67503 19.3563 9.11253L20.6833 10.1334L22.2292 9.50628L24.0813 8.76253L25.1021 10.5271L23.5417 11.7667L22.2438 12.7875L22.4479 14.4354ZM14.5 9.66669C11.2771 9.66669 8.66668 12.2771 8.66668 15.5C8.66668 18.7229 11.2771 21.3334 14.5 21.3334C17.7229 21.3334 20.3333 18.7229 20.3333 15.5C20.3333 12.2771 17.7229 9.66669 14.5 9.66669ZM14.5 18.4167C12.8958 18.4167 11.5833 17.1042 11.5833 15.5C11.5833 13.8959 12.8958 12.5834 14.5 12.5834C16.1042 12.5834 17.4167 13.8959 17.4167 15.5C17.4167 17.1042 16.1042 18.4167 14.5 18.4167Z" fill="#F8F8F8"/>
</svg>
