<svg width="32" height="32" viewBox="0 0 32 32" fill="none" xmlns="http://www.w3.org/2000/svg">
<path d="M21.707 20.293L16.707 15.293C16.6144 15.1997 16.5043 15.1256 16.3829 15.0751C16.2616 15.0246 16.1314 14.9985 16 14.9985C15.8686 14.9985 15.7384 15.0246 15.6171 15.0751C15.4957 15.1256 15.3856 15.1997 15.293 15.293L2 28.586L3.414 30L16 17.414L19.586 21L14 26.586L15.414 28L17.706 25.708L21.707 21.707C21.8002 21.6143 21.8741 21.5042 21.9246 21.3828C21.9751 21.2615 22.001 21.1314 22.001 21C22.001 20.8686 21.9751 20.7385 21.9246 20.6171C21.8741 20.4958 21.8002 20.3856 21.707 20.293Z" fill="white"/>
<path d="M28.586 9.00002L23 14.586L16.999 8.58402C16.8122 8.3977 16.5904 8.25017 16.3463 8.14994C16.1023 8.04971 15.8408 7.99876 15.577 8.00002C15.0493 8.00146 14.5436 8.21137 14.17 8.58402L8 14.76L9.414 16.174L15.584 9.99902L22.294 16.707C22.3866 16.8001 22.4967 16.8739 22.618 16.9243C22.7392 16.9746 22.8692 17.0006 23.0005 17.0006C23.1318 17.0006 23.2618 16.9746 23.383 16.9243C23.5043 16.8739 23.6144 16.8001 23.707 16.707L30 10.414L28.586 9.00002Z" fill="white"/>
<path d="M22.5 9C20.57 9 19 7.43 19 5.5C19 3.57 20.57 2 22.5 2C24.43 2 26 3.57 26 5.5C26 7.43 24.43 9 22.5 9ZM22.5 4C21.673 4 21 4.673 21 5.5C21 6.327 21.673 7 22.5 7C23.327 7 24 6.327 24 5.5C24 4.673 23.327 4 22.5 4Z" fill="white"/>
</svg>
