<?xml version="1.0" encoding="UTF-8" standalone="no"?>
<svg
   height="24"
   id="svg8"
   version="1.1"
   viewBox="0 0 24 24"
   width="24"
   sodipodi:docname="nav_about.svg"
   inkscape:version="1.3.2 (091e20ef0f, 2023-11-25)"
   xmlns:inkscape="http://www.inkscape.org/namespaces/inkscape"
   xmlns:sodipodi="http://sodipodi.sourceforge.net/DTD/sodipodi-0.dtd"
   xmlns="http://www.w3.org/2000/svg"
   xmlns:svg="http://www.w3.org/2000/svg">
  <sodipodi:namedview
     id="namedview1"
     pagecolor="#ffffff"
     bordercolor="#000000"
     borderopacity="0.25"
     inkscape:showpageshadow="2"
     inkscape:pageopacity="0.0"
     inkscape:pagecheckerboard="0"
     inkscape:deskcolor="#d1d1d1"
     inkscape:zoom="33.5"
     inkscape:cx="12"
     inkscape:cy="12"
     inkscape:window-width="1920"
     inkscape:window-height="1008"
     inkscape:window-x="1280"
     inkscape:window-y="42"
     inkscape:window-maximized="1"
     inkscape:current-layer="svg8" />
  <defs
     id="defs2" />
  <g
     id="g1347"
     style="display:inline"
     transform="translate(0,-290.65039)">
    <path
       d="m 12,292.65039 c -5.511,0 -10,4.489 -10,10 0,5.511 4.489,10 10,10 5.511,0 10,-4.489 10,-10 0,-5.511 -4.489,-10 -10,-10 z m 0,2 c 4.43012,0 8,3.56988 8,8 0,4.43012 -3.56988,8 -8,8 -4.43012,0 -8,-3.56988 -8,-8 0,-4.43012 3.56988,-8 8,-8 z"
       id="circle1332"
       style="color:#000000;font-style:normal;font-variant:normal;font-weight:normal;font-stretch:normal;font-size:medium;line-height:normal;font-family:sans-serif;font-variant-ligatures:normal;font-variant-position:normal;font-variant-caps:normal;font-variant-numeric:normal;font-variant-alternates:normal;font-variant-east-asian:normal;font-feature-settings:normal;font-variation-settings:normal;text-indent:0;text-align:start;text-decoration:none;text-decoration-line:none;text-decoration-style:solid;text-decoration-color:#000000;letter-spacing:normal;word-spacing:normal;text-transform:none;writing-mode:lr-tb;direction:ltr;text-orientation:mixed;dominant-baseline:auto;baseline-shift:baseline;text-anchor:start;white-space:normal;shape-padding:0;shape-margin:0;inline-size:0;clip-rule:nonzero;display:inline;overflow:visible;visibility:visible;opacity:1;isolation:auto;mix-blend-mode:normal;color-interpolation:sRGB;color-interpolation-filters:linearRGB;solid-color:#000000;solid-opacity:1;vector-effect:none;fill:#000000;fill-opacity:1;fill-rule:nonzero;stroke:none;stroke-linecap:round;stroke-linejoin:round;stroke-miterlimit:4;stroke-dasharray:none;stroke-dashoffset:0;stroke-opacity:1;color-rendering:auto;image-rendering:auto;shape-rendering:auto;text-rendering:auto;enable-background:accumulate;stop-color:#000000;stop-opacity:1" />
    <path
       d="m 12,299.65039 a 1,1 0 0 0 -1,1 v 7 a 1,1 0 0 0 1,1 1,1 0 0 0 1,-1 v -7 a 1,1 0 0 0 -1,-1 z"
       id="path1340"
       style="color:#000000;font-style:normal;font-variant:normal;font-weight:normal;font-stretch:normal;font-size:medium;line-height:normal;font-family:sans-serif;font-variant-ligatures:normal;font-variant-position:normal;font-variant-caps:normal;font-variant-numeric:normal;font-variant-alternates:normal;font-variant-east-asian:normal;font-feature-settings:normal;font-variation-settings:normal;text-indent:0;text-align:start;text-decoration:none;text-decoration-line:none;text-decoration-style:solid;text-decoration-color:#000000;letter-spacing:normal;word-spacing:normal;text-transform:none;writing-mode:lr-tb;direction:ltr;text-orientation:mixed;dominant-baseline:auto;baseline-shift:baseline;text-anchor:start;white-space:normal;shape-padding:0;shape-margin:0;inline-size:0;clip-rule:nonzero;display:inline;overflow:visible;visibility:visible;opacity:1;isolation:auto;mix-blend-mode:normal;color-interpolation:sRGB;color-interpolation-filters:linearRGB;solid-color:#000000;solid-opacity:1;vector-effect:none;fill:#000000;fill-opacity:1;fill-rule:nonzero;stroke:none;stroke-linecap:round;stroke-linejoin:miter;stroke-miterlimit:4;stroke-dasharray:none;stroke-dashoffset:0;stroke-opacity:1;color-rendering:auto;image-rendering:auto;shape-rendering:auto;text-rendering:auto;enable-background:accumulate;stop-color:#000000;stop-opacity:1" />
    <path
       d="m 13,297.64999 a 1,1 0 0 1 -1,1 1,1 0 0 1 -1,-1 1,1 0 0 1 1,-1 1,1 0 0 1 1,1 z"
       id="path1342"
       style="fill:#000000;stroke:none;stroke-width:2;stroke-linecap:round;stroke-linejoin:round;stroke-miterlimit:4;stroke-dasharray:none;fill-opacity:1;opacity:1" />
  </g>
  <path
     style="fill:#ffffff;stroke-width:0.0298507"
     d="M 11.179104,21.954151 C 9.4214737,21.787228 7.8586439,21.234706 6.4477612,20.281435 2.7820632,17.804685 1.1768479,13.319503 2.4476062,9.1044776 3.3137819,6.2314269 5.5171215,3.8400426 8.3283582,2.7218303 12.53597,1.0481887 17.315784,2.4229437 20.028866,6.0870928 c 1.057429,1.4281099 1.676867,3.0082066 1.902578,4.8532062 0.04996,0.408376 0.04996,1.711026 0,2.119402 -0.224678,1.83655 -0.84844,3.427433 -1.902872,4.853206 -1.513994,2.04718 -3.750058,3.450728 -6.224736,3.907186 -0.72508,0.133742 -1.962552,0.196946 -2.624732,0.134058 z m 2.011013,-2.028353 c 3.205951,-0.484802 5.766653,-2.79525 6.572427,-5.930109 0.179934,-0.70003 0.233301,-1.150984 0.234409,-1.980764 10e-4,-0.785946 -0.03303,-1.124854 -0.180111,-1.791044 C 19.156397,7.2324263 16.767574,4.8436033 13.776119,4.1831577 13.118254,4.0379159 12.769313,4.0024046 12,4.0024046 c -0.975126,0 -1.634634,0.099801 -2.4925373,0.3771884 -3.389706,1.0959977 -5.6408675,4.3177652 -5.5123653,7.889064 0.08899,2.473173 1.2431125,4.691811 3.1989325,6.149496 1.2346477,0.92019 2.5829976,1.427505 4.1940301,1.577997 0.340323,0.03179 1.400229,-0.0096 1.802057,-0.07035 z"
     id="path1" />
  <path
     style="fill:#ffffff;stroke-width:0.0298507"
     d="m 11.731343,17.94512 c -0.06567,-0.02176 -0.161101,-0.0613 -0.212067,-0.08787 -0.14907,-0.07772 -0.378811,-0.352008 -0.444649,-0.530874 -0.0585,-0.158926 -0.0597,-0.236159 -0.0597,-3.833836 V 9.8208955 l 0.0674,-0.1665476 c 0.115595,-0.2856247 0.360608,-0.5145226 0.639037,-0.5970056 0.169389,-0.05018 0.446806,-0.036329 0.627666,0.03134 0.350083,0.1309829 0.569189,0.4216686 0.622783,0.8262401 0.02044,0.1542906 0.02801,1.4374756 0.02215,3.7567196 -0.0087,3.442575 -0.01024,3.525728 -0.06859,3.669792 -0.08395,0.207272 -0.335608,0.47083 -0.529538,0.554578 -0.190091,0.08209 -0.496593,0.10474 -0.664492,0.04911 z"
     id="path2" />
  <path
     style="fill:#ffffff;stroke-width:0.0298507"
     d="m 11.726095,7.9439061 c -0.280552,-0.091778 -0.552472,-0.3463933 -0.644153,-0.6031597 -0.06741,-0.1888005 -0.06741,-0.4923954 0,-0.6825279 0.07112,-0.2005768 0.320562,-0.4664607 0.522223,-0.5566364 0.22128,-0.098948 0.57039,-0.098948 0.79167,0 0.201661,0.090176 0.451107,0.3560596 0.522223,0.5566364 0.06739,0.1900809 0.06739,0.4936205 0,0.6830797 -0.0696,0.1956661 -0.297925,0.4416681 -0.503092,0.5420467 -0.19654,0.096158 -0.498821,0.1227329 -0.688871,0.060561 z"
     id="path3" />
</svg>
