<svg width="25" height="32" viewBox="0 0 25 32" fill="none" xmlns="http://www.w3.org/2000/svg">
<path d="M16.7875 26.4375L12.5 23.9146L8.2125 26.4375L9.35 21.5667L5.57291 18.3L10.5458 17.8771L12.5 13.3125L14.4542 17.8771L19.4271 18.3L15.65 21.5667M24.1667 0.916687H0.83333V3.83335L7.92083 9.14169C5.44809 10.1969 3.41568 12.0738 2.16732 14.4548C0.918956 16.8359 0.531254 19.5751 1.06978 22.2091C1.60831 24.8431 3.04002 27.2102 5.12278 28.9103C7.20553 30.6103 9.81152 31.5388 12.5 31.5388C15.1885 31.5388 17.7945 30.6103 19.8772 28.9103C21.96 27.2102 23.3917 24.8431 23.9302 22.2091C24.4687 19.5751 24.081 16.8359 22.8327 14.4548C21.5843 12.0738 19.5519 10.1969 17.0792 9.14169L24.1667 3.83335M21.25 19.875C21.2508 21.5321 20.781 23.1553 19.8953 24.5558C19.0097 25.9564 17.7445 27.0766 16.2471 27.7862C14.7496 28.4958 13.0815 28.7657 11.4367 28.5643C9.79191 28.3629 8.23811 27.6986 6.95609 26.6487C5.67406 25.5988 4.71652 24.2065 4.19487 22.6337C3.67322 21.0608 3.60891 19.3722 4.00942 17.7643C4.40993 16.1564 5.25879 14.6952 6.45724 13.5508C7.65569 12.4064 9.15446 11.6259 10.7792 11.3C11.9147 11.0682 13.0853 11.0682 14.2208 11.3C16.2026 11.6975 17.9856 12.7689 19.267 14.332C20.5484 15.8952 21.249 17.8538 21.25 19.875ZM13.4187 8.20835H11.5812L5.74791 3.83335H19.3687L13.4187 8.20835Z" fill="#F8F8F8"/>
</svg>
