<?xml version="1.0" encoding="UTF-8" standalone="no"?>
<svg
   viewBox="0 0 32 32"
   version="1.1"
   id="svg5"
   sodipodi:docname="logout.svg"
   inkscape:version="1.3.2 (091e20ef0f, 2023-11-25)"
   xmlns:inkscape="http://www.inkscape.org/namespaces/inkscape"
   xmlns:sodipodi="http://sodipodi.sourceforge.net/DTD/sodipodi-0.dtd"
   xmlns="http://www.w3.org/2000/svg"
   xmlns:svg="http://www.w3.org/2000/svg">
  <sodipodi:namedview
     id="namedview5"
     pagecolor="#ffffff"
     bordercolor="#000000"
     borderopacity="0.25"
     inkscape:showpageshadow="2"
     inkscape:pageopacity="0.0"
     inkscape:pagecheckerboard="0"
     inkscape:deskcolor="#d1d1d1"
     inkscape:zoom="25.125"
     inkscape:cx="16"
     inkscape:cy="16"
     inkscape:window-width="1920"
     inkscape:window-height="1008"
     inkscape:window-x="1280"
     inkscape:window-y="42"
     inkscape:window-maximized="1"
     inkscape:current-layer="svg5" />
  <defs
     id="defs1">
    <style
       id="style1">.cls-1{fill:none;stroke:#000;stroke-linecap:round;stroke-linejoin:round;stroke-width:2px;}</style>
  </defs>
  <title
     id="title1" />
  <g
     id="logout">
    <line
       class="cls-1"
       x1="15.92"
       x2="28.92"
       y1="16"
       y2="16"
       id="line1" />
    <path
       d="M23.93,25v3h-16V4h16V7h2V3a1,1,0,0,0-1-1h-18a1,1,0,0,0-1,1V29a1,1,0,0,0,1,1h18a1,1,0,0,0,1-1V25Z"
       id="path1" />
    <line
       class="cls-1"
       x1="28.92"
       x2="24.92"
       y1="16"
       y2="20"
       id="line2" />
    <line
       class="cls-1"
       x1="28.92"
       x2="24.92"
       y1="16"
       y2="12"
       id="line3" />
    <line
       class="cls-1"
       x1="24.92"
       x2="24.92"
       y1="8.09"
       y2="6.09"
       id="line4" />
    <line
       class="cls-1"
       x1="24.92"
       x2="24.92"
       y1="26"
       y2="24"
       id="line5" />
  </g>
  <path
     style="fill:#ffffff;stroke-width:0.039801"
     d="M 6.6619814,29.935101 C 6.3211369,29.8133 6.1172571,29.617573 6.0076608,29.306944 5.9203679,29.05953 5.9211018,2.9383906 6.0084085,2.690937 6.0940771,2.4481261 6.242005,2.2761709 6.4774396,2.1457228 L 6.6865672,2.0298507 15.839399,2.0195627 c 10.12608,-0.011382 9.395904,-0.029991 9.72036,0.2477303 0.09052,0.077484 0.20191,0.2179809 0.247528,0.3122153 0.08138,0.1681006 0.08306,0.2227624 0.08929,2.8954159 0.0047,2.0371936 -0.0059,2.7676434 -0.04215,2.8968426 -0.05952,0.2120314 -0.32379,0.5092788 -0.540994,0.6084915 -0.191253,0.087359 -0.565079,0.097195 -0.750442,0.019746 -0.186844,-0.078069 -0.414049,-0.2890735 -0.515584,-0.4788227 -0.08627,-0.1612203 -0.08733,-0.1864 -0.09846,-2.3420768 L 23.937705,4 H 15.919101 7.9004975 v 12 12 h 8.0199005 8.019901 l 2.22e-4,-2.059701 c 1.39e-4,-1.296088 0.01549,-2.114664 0.04139,-2.20795 0.105346,-0.379321 0.536539,-0.707829 0.928103,-0.707085 0.404707,7.7e-4 0.821863,0.304758 0.941213,0.685877 0.04233,0.135166 0.05165,0.712626 0.04605,2.85371 -0.0069,2.631704 -0.0086,2.687609 -0.08998,2.855615 -0.04563,0.09425 -0.156717,0.234499 -0.246871,0.311668 -0.324094,0.277411 0.403893,0.258101 -9.657205,0.256169 -7.3341399,-0.0014 -9.1251599,-0.01172 -9.2412426,-0.0532 z"
     id="path5" />
  <path
     style="fill:#ffffff;stroke-width:0.039801"
     d="m 24.664278,20.937684 c -0.595904,-0.191317 -0.878467,-0.805187 -0.623976,-1.355594 0.04763,-0.10302 0.502281,-0.591123 1.288287,-1.383085 l 1.214675,-1.223881 -5.410935,-8.74e-4 c -5.357588,-8.65e-4 -5.412702,-0.0017 -5.59004,-0.08195 -0.240522,-0.108876 -0.389085,-0.255112 -0.502158,-0.494292 -0.231492,-0.48967 -0.01015,-1.058407 0.502158,-1.290312 0.177338,-0.08027 0.232452,-0.08108 5.59004,-0.08195 l 5.410935,-8.74e-4 -1.214675,-1.223881 c -0.751606,-0.757302 -1.243976,-1.284574 -1.291533,-1.383085 -0.101531,-0.210313 -0.104219,-0.621666 -0.0054,-0.820202 0.243974,-0.489967 0.839056,-0.707394 1.301637,-0.475584 0.225543,0.113024 4.341272,4.201837 4.469295,4.440065 0.06423,0.11952 0.08556,0.228651 0.08556,0.437811 0,0.20916 -0.02133,0.318291 -0.08556,0.437811 -0.119249,0.221902 -4.242849,4.326733 -4.450328,4.430072 -0.220984,0.110065 -0.480578,0.136401 -0.688022,0.0698 z"
     id="path6" />
</svg>
