<svg width="31" height="30" viewBox="0 0 31 30" fill="none" xmlns="http://www.w3.org/2000/svg">
<path d="M12.0417 12.5C10.4375 12.5 9.06424 11.9289 7.92188 10.7865C6.77951 9.64414 6.20833 8.27087 6.20833 6.66671C6.20833 5.06254 6.77951 3.68928 7.92188 2.54692C9.06424 1.40455 10.4375 0.833374 12.0417 0.833374C13.6458 0.833374 15.0191 1.40455 16.1615 2.54692C17.3038 3.68928 17.875 5.06254 17.875 6.66671C17.875 8.27087 17.3038 9.64414 16.1615 10.7865C15.0191 11.9289 13.6458 12.5 12.0417 12.5ZM12.0417 9.58337C12.8437 9.58337 13.5306 9.29803 14.1023 8.72733C14.674 8.15664 14.9593 7.46976 14.9583 6.66671C14.9574 5.86365 14.672 5.17726 14.1023 4.60754C13.5326 4.03782 12.8457 3.75199 12.0417 3.75004C11.2376 3.7481 10.5512 4.03393 9.9825 4.60754C9.41375 5.18115 9.12792 5.86754 9.125 6.66671C9.12208 7.46587 9.40792 8.15275 9.9825 8.72733C10.5571 9.30192 11.2435 9.58726 12.0417 9.58337ZM28.2292 29.2709L23.5625 24.6042C23.0521 24.8959 22.5052 25.1389 21.9219 25.3334C21.3385 25.5278 20.7187 25.625 20.0625 25.625C18.2396 25.625 16.6903 24.9873 15.4148 23.7117C14.1392 22.4362 13.501 20.8864 13.5 19.0625C13.499 17.2387 14.1373 15.6894 15.4148 14.4148C16.6923 13.1402 18.2415 12.502 20.0625 12.5C21.8835 12.4981 23.4332 13.1364 24.7117 14.4148C25.9901 15.6933 26.6279 17.2425 26.625 19.0625C26.625 19.7188 26.5278 20.3386 26.3333 20.9219C26.1389 21.5052 25.8958 22.0521 25.6042 22.5625L30.2708 27.2292L28.2292 29.2709ZM20.0625 22.7084C21.0833 22.7084 21.9462 22.3559 22.651 21.6511C23.3559 20.9462 23.7083 20.0834 23.7083 19.0625C23.7083 18.0417 23.3559 17.1789 22.651 16.474C21.9462 15.7691 21.0833 15.4167 20.0625 15.4167C19.0417 15.4167 18.1788 15.7691 17.474 16.474C16.7691 17.1789 16.4167 18.0417 16.4167 19.0625C16.4167 20.0834 16.7691 20.9462 17.474 21.6511C18.1788 22.3559 19.0417 22.7084 20.0625 22.7084ZM0.375 24.1667V20.1198C0.375 19.2934 0.581597 18.5278 0.994792 17.823C1.40799 17.1181 1.97917 16.5834 2.70833 16.2188C3.94792 15.5868 5.34549 15.0521 6.90104 14.6146C8.4566 14.1771 10.1823 13.9584 12.0781 13.9584C11.7865 14.3959 11.5371 14.864 11.33 15.3628C11.1229 15.8615 10.9591 16.3777 10.8385 16.9115C9.38021 17.033 8.07986 17.2824 6.9375 17.6596C5.79514 18.0368 4.83507 18.4316 4.05729 18.8438C3.81424 18.9653 3.62611 19.1418 3.49292 19.3732C3.35972 19.6046 3.29264 19.8534 3.29167 20.1198V21.25H10.8385C10.9601 21.7848 11.1244 22.2952 11.3315 22.7813C11.5385 23.2674 11.7874 23.7292 12.0781 24.1667H0.375Z" fill="#F8F8F8"/>
</svg>
