<?xml version="1.0" encoding="UTF-8" standalone="no"?>
<svg
   width="18"
   height="18"
   viewBox="0 0 18 18"
   fill="none"
   version="1.1"
   id="svg2"
   sodipodi:docname="profile.svg"
   inkscape:version="1.3.2 (091e20ef0f, 2023-11-25)"
   xmlns:inkscape="http://www.inkscape.org/namespaces/inkscape"
   xmlns:sodipodi="http://sodipodi.sourceforge.net/DTD/sodipodi-0.dtd"
   xmlns="http://www.w3.org/2000/svg"
   xmlns:svg="http://www.w3.org/2000/svg">
  <defs
     id="defs2" />
  <sodipodi:namedview
     id="namedview2"
     pagecolor="#ffffff"
     bordercolor="#000000"
     borderopacity="0.25"
     inkscape:showpageshadow="2"
     inkscape:pageopacity="0.0"
     inkscape:pagecheckerboard="0"
     inkscape:deskcolor="#d1d1d1"
     inkscape:zoom="44.666667"
     inkscape:cx="9"
     inkscape:cy="9"
     inkscape:window-width="1920"
     inkscape:window-height="1008"
     inkscape:window-x="1280"
     inkscape:window-y="42"
     inkscape:window-maximized="1"
     inkscape:current-layer="svg2" />
  <path
     d="M1 15C1 13.9391 1.42143 12.9217 2.17157 12.1716C2.92172 11.4214 3.93913 11 5 11H13C14.0609 11 15.0783 11.4214 15.8284 12.1716C16.5786 12.9217 17 13.9391 17 15C17 15.5304 16.7893 16.0391 16.4142 16.4142C16.0391 16.7893 15.5304 17 15 17H3C2.46957 17 1.96086 16.7893 1.58579 16.4142C1.21071 16.0391 1 15.5304 1 15Z"
     stroke="black"
     stroke-width="2"
     stroke-linejoin="round"
     id="path1" />
  <path
     d="M9 7C10.6569 7 12 5.65685 12 4C12 2.34315 10.6569 1 9 1C7.34315 1 6 2.34315 6 4C6 5.65685 7.34315 7 9 7Z"
     stroke="black"
     stroke-width="2"
     id="path2" />
  <path
     style="fill:#ffffff;stroke-width:0.0223881"
     d="M 2.5634328,17.954534 C 1.4189646,17.772648 0.50029088,16.984462 0.14962186,15.883578 0.02258845,15.484772 -0.01555667,15.040391 0.03410375,14.53782 0.26509258,12.200179 2.051369,10.359021 4.385154,10.053089 4.6137401,10.023124 5.2124319,10.018657 9,10.018657 c 3.787568,0 4.38626,0.0045 4.614846,0.03443 1.680483,0.220292 3.123267,1.249709 3.858311,2.752881 0.2323,0.475056 0.375717,0.93311 0.462641,1.477612 0.0556,0.3483 0.05628,1.006582 0.0013,1.262121 -0.137243,0.637886 -0.397179,1.125666 -0.831392,1.560139 -0.42051,0.420762 -0.879801,0.672278 -1.501229,0.822098 l -0.201493,0.04858 -6.3246268,0.0041 c -5.2179927,0.0034 -6.3579237,-0.0012 -6.5149254,-0.02611 z M 15.327003,15.959403 c 0.314417,-0.120393 0.517977,-0.324708 0.630062,-0.6324 0.09176,-0.251902 0.04711,-0.831329 -0.09765,-1.267302 -0.341625,-1.028805 -1.153256,-1.755094 -2.24747,-2.011149 -0.200541,-0.04693 -0.221632,-0.04719 -4.4664176,-0.05455 -3.0672128,-0.0053 -4.3274767,-3.01e-4 -4.4876642,0.01788 -1.1125457,0.126303 -2.0616152,0.857742 -2.4636342,1.898702 -0.157425,0.407625 -0.2386429,0.934405 -0.1912044,1.240154 0.067657,0.436063 0.39207,0.766667 0.82907,0.844895 0.05541,0.0099 2.861194,0.01664 6.2350746,0.01493 l 6.1343288,-0.0031 z"
     id="path3" />
  <path
     style="fill:#ffffff;stroke-width:0.0223881"
     d="M 8.4241346,7.9479506 C 7.4599699,7.7911782 6.6018333,7.3199628 5.9947749,6.6139538 4.5605479,4.9459482 4.7185105,2.4919332 6.3546876,1.0225595 6.6796536,0.73072276 7.1360956,0.45108949 7.5667028,0.28003401 7.7693062,0.19955134 8.1737492,0.09141839 8.4179104,0.05245292 c 0.23099,-0.03686349 0.9331892,-0.03686349 1.1641792,0 1.2978194,0.20711794 2.3965734,1.00581378 2.9769344,2.16396498 0.41486,0.827882 0.531129,1.743289 0.33379,2.6279817 C 12.545692,6.4005862 11.368062,7.5658793 9.7981131,7.9066807 9.5784625,7.9543621 9.4648993,7.964589 9.0783582,7.9714979 8.7534719,7.9773049 8.5623616,7.9704262 8.4241346,7.9479506 Z M 9.357825,5.9770529 C 9.9685437,5.8705525 10.518292,5.4602622 10.796969,4.9029851 10.929109,4.6387406 10.984796,4.4149599 10.99753,4.0970149 11.016757,3.616948 10.918348,3.2548771 10.666173,2.8778716 10.289475,2.3147015 9.6881693,1.996693 9,1.996693 c -0.9955218,0 -1.8256729,0.7010001 -1.9826693,1.6742149 -0.042803,0.265333 -0.016791,0.6730529 0.057894,0.9074503 0.1171023,0.3675251 0.2782647,0.6258421 0.5536812,0.8874609 0.4596336,0.436607 1.0892521,0.6227825 1.7289191,0.5112338 z"
     id="path4" />
</svg>
