<?xml version="1.0" encoding="UTF-8" standalone="no"?>
<svg
   enable-background="new 0 0 32 32"
   id="Stock_cut"
   version="1.1"
   viewBox="0 0 32 32"
   xml:space="preserve"
   sodipodi:docname="profile_placeholder.svg"
   inkscape:version="1.3.2 (091e20ef0f, 2023-11-25)"
   xmlns:inkscape="http://www.inkscape.org/namespaces/inkscape"
   xmlns:sodipodi="http://sodipodi.sourceforge.net/DTD/sodipodi-0.dtd"
   xmlns="http://www.w3.org/2000/svg"
   xmlns:svg="http://www.w3.org/2000/svg"><defs
     id="defs2" /><sodipodi:namedview
     id="namedview2"
     pagecolor="#ffffff"
     bordercolor="#000000"
     borderopacity="0.25"
     inkscape:showpageshadow="2"
     inkscape:pageopacity="0.0"
     inkscape:pagecheckerboard="0"
     inkscape:deskcolor="#d1d1d1"
     inkscape:zoom="25.125"
     inkscape:cx="16"
     inkscape:cy="16"
     inkscape:window-width="1920"
     inkscape:window-height="1008"
     inkscape:window-x="1280"
     inkscape:window-y="42"
     inkscape:window-maximized="1"
     inkscape:current-layer="Stock_cut" /><desc
     id="desc1" /><g
     id="g2"><circle
       cx="16"
       cy="16"
       fill="none"
       r="15"
       stroke="#000000"
       stroke-linejoin="round"
       stroke-miterlimit="10"
       stroke-width="2"
       id="circle1" /><path
       d="M26,27L26,27   c0-5.523-4.477-10-10-10h0c-5.523,0-10,4.477-10,10v0"
       fill="none"
       stroke="#000000"
       stroke-linejoin="round"
       stroke-miterlimit="10"
       stroke-width="2"
       id="path1" /><circle
       cx="16"
       cy="11"
       fill="none"
       r="6"
       stroke="#000000"
       stroke-linejoin="round"
       stroke-miterlimit="10"
       stroke-width="2"
       id="circle2"
       style="fill:#ffffff" /></g><path
     style="fill:#ffffff;stroke-width:0.039801"
     d="M 14.78607,31.938448 C 11.021056,31.613865 7.5889059,30.070619 4.9255387,27.504719 2.4991969,25.167171 0.88845218,22.163426 0.2822173,18.845771 0.08865789,17.786506 0.04217198,17.235409 0.04217198,16 c 0,-1.235409 0.04648591,-1.786506 0.24004532,-2.845771 C 0.86940569,9.9408072 2.3729176,7.0655164 4.6756665,4.7522706 5.9055093,3.516822 7.1459781,2.6005553 8.6327327,1.8294022 12.501607,-0.17731392 16.966094,-0.52711363 21.074627,0.85455976 c 3.366266,1.13205354 6.252214,3.34188684 8.214105,6.28971884 1.428441,2.1462993 2.27174,4.4589784 2.597842,7.1243784 0.05272,0.430905 0.07061,0.869532 0.07061,1.731343 0,1.235817 -0.04674,1.791443 -0.239399,2.845771 -1.199087,6.562069 -6.311843,11.674773 -12.872012,12.871878 -0.295522,0.05393 -0.779104,0.127382 -1.074627,0.163233 -0.633342,0.07683 -2.372542,0.110373 -2.985074,0.05757 z m 2.771146,-2.009303 c 2.067522,-0.241265 3.883035,-0.854493 5.666665,-1.914039 0.461274,-0.274015 1.295145,-0.85816 1.653133,-1.158056 l 0.152824,-0.128024 -0.0489,-0.528692 C 24.653274,22.658001 22.304492,19.637008 18.985075,18.488485 17.939786,18.126814 17.156531,17.998156 16,17.998156 c -1.156531,0 -1.939786,0.128658 -2.985075,0.490329 -3.2704311,1.131574 -5.6394607,4.13637 -5.9882838,7.595334 -0.072501,0.718926 -0.1226038,0.614639 0.5317504,1.106833 0.7045971,0.529985 1.2157545,0.850977 1.9997756,1.255799 1.8037538,0.931352 3.5708708,1.411051 5.7453158,1.559615 0.412876,0.02821 1.741385,-0.01713 2.253733,-0.07692 z M 5.4854929,23.840796 C 6.2350945,21.382105 7.7943996,19.2887 9.9502488,17.846751 10.364515,17.569668 11.432768,17.000713 11.856141,16.831668 l 0.19445,-0.07764 -0.219396,-0.165645 C 10.941634,15.916758 10.227239,15.058548 9.7511049,14.089552 8.4974647,11.538226 8.8925174,8.5420804 10.765249,6.3981122 12.595235,4.303081 15.560734,3.4996619 18.201961,4.3833433 c 1.782589,0.5964052 3.242922,1.8812911 4.065264,3.5768557 0.812432,1.6751327 0.929465,3.495744 0.338553,5.2667 -0.441117,1.322022 -1.29411,2.498614 -2.436973,3.361484 l -0.219396,0.165645 0.19445,0.07764 c 0.401147,0.160171 1.482908,0.733205 1.881696,0.99678 1.725974,1.140761 3.129289,2.7824 3.973774,4.648637 0.257712,0.56952 0.609147,1.611578 0.711593,2.10998 0.03937,0.191542 0.08134,0.348212 0.09327,0.348155 0.01193,-5.6e-5 0.198347,-0.23737 0.41427,-0.527363 1.546659,-2.077225 2.427193,-4.340675 2.736669,-7.034723 0.06193,-0.539078 0.06193,-2.20719 0,-2.746268 -0.130577,-1.1367 -0.346132,-2.134479 -0.668599,-3.09487 C 28.379185,8.8296888 26.690031,6.4952008 24.398213,4.7761194 24.106375,4.5572139 23.682464,4.2618285 23.456188,4.1197075 22.87481,3.7545519 21.546597,3.0986945 20.935323,2.8749316 c -3.25067,-1.1899412 -6.619976,-1.1899412 -9.870646,0 C 10.453403,3.0986945 9.12519,3.7545519 8.5438121,4.1197075 6.8162249,5.2047813 5.2047813,6.8162249 4.1197075,8.5438121 3.7545519,9.12519 3.0986945,10.453403 2.8749316,11.064677 c -1.1874126,3.243762 -1.1879559,6.655738 -0.00157,9.870646 0.2246083,0.608653 0.8836712,1.942453 1.2343803,2.498117 0.2828271,0.448113 0.7810352,1.144825 0.9837198,1.375671 l 0.1185146,0.134981 0.089221,-0.392444 c 0.049072,-0.215844 0.1329051,-0.535728 0.1862969,-0.710852 z m 11.5095321,-7.92014 c 0.997217,-0.206777 1.800488,-0.641755 2.531142,-1.370636 0.582952,-0.581539 0.945216,-1.142171 1.20453,-1.864103 0.369906,-1.029821 0.369897,-2.332249 -2.3e-5,-3.361884 C 20.220988,7.9053707 19.154807,6.8216123 17.751244,6.2954834 17.130683,6.0628649 16.818576,6.0124561 16,6.0126384 c -0.657273,1.465e-4 -0.804909,0.012254 -1.128343,0.092539 -1.710121,0.4244967 -3.023756,1.5981095 -3.602894,3.2188553 -0.370299,1.0362993 -0.370091,2.3300443 5.4e-4,3.3618843 0.631242,1.757386 2.206789,3.034915 4.059444,3.291591 0.381528,0.05286 1.286004,0.022 1.666278,-0.05685 z"
     id="path2" /></svg>
