<svg width="17" height="22" viewBox="0 0 17 22" fill="none" xmlns="http://www.w3.org/2000/svg">
<path d="M11.5 4.5C12.59 4.5 13.5 3.58 13.5 2.5C13.5 1.96957 13.2893 1.46086 12.9142 1.08579C12.5392 0.710714 12.0304 0.5 11.5 0.5C10.39 0.5 9.50001 1.38 9.50001 2.5C9.50001 3.58 10.39 4.5 11.5 4.5ZM7.89001 18.38L8.89001 14L11 16V22H13V14.5L10.89 12.5L11.5 9.5C12.1852 10.2851 13.0306 10.9145 13.9793 11.3457C14.9279 11.7769 15.9579 12 17 12V10C15.09 10 13.5 9 12.69 7.58L11.69 6C11.29 5.38 10.69 5 10 5C9.69001 5 9.50001 5.08 9.19001 5.08L4.00001 7.28V12H6.00001V8.58L7.79001 7.88L6.19001 16L1.29001 15L0.890015 17L7.89001 18.38Z" fill="white"/>
</svg>
